<?xml version="1.0" encoding="UTF-8"?>
<svg version="1.1" xmlns="http://www.w3.org/2000/svg" width="521" height="117">
<path d="M0 0 C171.93 0 343.86 0 521 0 C521 38.61 521 77.22 521 117 C349.07 117 177.14 117 0 117 C0 78.39 0 39.78 0 0 Z " fill="#231D17" transform="translate(0,0)"/>
<path d="M0 0 C0.33209473 1.00675781 0.66418945 2.01351563 1.00634766 3.05078125 C2.26677992 6.86891463 3.53149727 10.68561817 4.79736328 14.50195312 C5.33950669 16.13829866 5.88056331 17.77500475 6.42041016 19.41210938 C9.48987236 28.71766705 12.64126042 37.96657852 16.19082642 47.10180664 C18 51.79758451 18 51.79758451 18 54 C7.18021347 58.07224609 -3.09400451 60.4977408 -14.625 61.5625 C-25.28403672 62.56978711 -34.98814998 64.17902815 -45 68 C-45.69158203 68.26329102 -46.38316406 68.52658203 -47.09570312 68.79785156 C-57.81146041 72.98140064 -69.136509 77.54768995 -75 88 C-75.33 88 -75.66 88 -76 88 C-76.06965856 80.5414265 -76.1228914 73.0829237 -76.15543652 65.62409019 C-76.17106042 62.16024622 -76.19223795 58.69662561 -76.22631836 55.23291016 C-76.2652946 51.24644691 -76.27973637 47.2600726 -76.29296875 43.2734375 C-76.30845261 42.03572601 -76.32393646 40.79801453 -76.33988953 39.52279663 C-76.3412572 32.51673839 -76.00743352 27.69679485 -71.44921875 22.09375 C-58.10747456 10.02405681 -39.0962484 7.24499513 -21.87573242 5.15039062 C-15.87898979 4.38102499 -10.50095644 3.20581893 -4.92578125 0.76953125 C-3 0 -3 0 0 0 Z " fill="#3F3F3F" transform="translate(493,6)"/>
<path d="M0 0 C1.09054687 0.33773438 2.18109375 0.67546875 3.3046875 1.0234375 C11.32775541 3.42452128 19.08435544 5.35292786 27.4375 6.125 C37.96448789 7.12959009 46.95508477 9.84600265 56.75 13.8125 C57.55493896 14.1317041 58.35987793 14.4509082 59.18920898 14.77978516 C67.15407673 18.12342954 72.48286148 21.93977968 76 30 C76.36076355 32.96139526 76.36076355 32.96139526 76.34057617 36.09716797 C76.34034958 37.27793915 76.34012299 38.45871033 76.33988953 39.67526245 C76.32440567 40.93484772 76.30892181 42.19443298 76.29296875 43.4921875 C76.28872391 44.79326447 76.28447906 46.09434143 76.28010559 47.43484497 C76.26870479 50.87745763 76.23927974 54.31968467 76.20599365 57.762146 C76.17518917 61.28148178 76.1615782 64.80088047 76.14648438 68.3203125 C76.11440462 75.21369909 76.06326684 82.10683098 76 89 C75.34 88.01 74.68 87.02 74 86 C67.84912154 77.35032717 58.92981822 73.71055679 49.17578125 70.17578125 C46.9506339 69.35195671 44.75459776 68.4471212 42.5859375 67.484375 C38.88115102 65.95080326 35.20512261 64.84895468 31.3125 63.9375 C30.22207397 63.67827759 30.22207397 63.67827759 29.10961914 63.41381836 C23.40494719 62.1382583 17.75795479 61.52392532 11.9375 61.0625 C2.75635872 60.33127437 -5.36950865 58.13141721 -14 55 C-14.99 54.67 -15.98 54.34 -17 54 C-16.35691015 47.73421919 -14.57706722 42.03566436 -12.625 36.0625 C-12.16867187 34.63647461 -12.16867187 34.63647461 -11.703125 33.18164062 C-10.15918786 28.39477568 -8.5379786 23.6563641 -6.74121094 18.95874023 C-5.36763874 15.32890831 -4.09764338 11.66186532 -2.8125 8 C-2.40354492 6.83791016 -2.40354492 6.83791016 -1.98632812 5.65234375 C-1.32348918 3.76848571 -0.66163914 1.88427976 0 0 Z " fill="#3F3F3F" transform="translate(338,6)"/>
<path d="M0 0 C2.48908865 1.40437002 3.96651476 2.91691756 6 5 C6.66 5.66 7.32 6.32 8 7 C8.7425 6.21625 9.485 5.4325 10.25 4.625 C14.59063185 0.4816696 17.83627653 -0.50173425 23.7421875 -0.39453125 C27.59075968 0.27797012 29.33977988 2.20676888 32 5 C35.81410866 12.62821731 31.94357588 23.30154334 30 31 C29.29633792 34.32640254 28.64067664 37.6609441 28 41 C25.69 41 23.38 41 21 41 C21.41400053 34.8553605 21.97171413 28.81507888 23.0625 22.75 C23.87765909 18.04430892 24.44146533 13.76782554 24 9 C21.2019983 6.72108285 21.2019983 6.72108285 18.125 7.0625 C13.65433573 8.40369928 11.42243494 10.73081433 8.95458984 14.66772461 C6.02116476 20.15762606 5.0084809 25.36076638 4.25 31.5 C4.12496094 32.4178125 3.99992187 33.335625 3.87109375 34.28125 C3.56800155 36.51946932 3.27794066 38.75854305 3 41 C0.36 41 -2.28 41 -5 41 C-4.6902353 38.1038504 -4.37728812 35.20810424 -4.0625 32.3125 C-3.97548828 31.49587891 -3.88847656 30.67925781 -3.79882812 29.83789062 C-3.36154922 25.83759846 -2.80159528 21.94524284 -2 18 C-1.86731195 16.44091547 -1.78187224 14.876896 -1.75 13.3125 C-1.72421875 12.54550781 -1.6984375 11.77851562 -1.671875 10.98828125 C-1.78015625 10.33214844 -1.8884375 9.67601562 -2 9 C-4.78934297 6.75327069 -4.78934297 6.75327069 -7.8125 6.9375 C-12.42227515 8.47409172 -14.49554966 10.89666328 -17 15 C-20.75456277 23.29439357 -21.99024125 32.01846167 -23 41 C-25.64 41 -28.28 41 -31 41 C-30.47015994 37.07093133 -29.93695679 33.14233389 -29.40087891 29.21411133 C-29.13143463 27.23476889 -28.86451448 25.25508337 -28.59765625 23.27539062 C-27.57724718 15.81128728 -26.43318932 8.39645284 -25 1 C-22.36 1 -19.72 1 -17 1 C-16.67 2.32 -16.34 3.64 -16 5 C-15.21625 4.360625 -14.4325 3.72125 -13.625 3.0625 C-9.20802991 -0.4079765 -5.52439972 -0.8541929 0 0 Z " fill="#F2F2F2" transform="translate(261,25)"/>
<path d="M0 0 C2.31 0 4.62 0 7 0 C7.45996797 2.41636509 7.91798176 4.83307662 8.375 7.25 C8.50132813 7.91257812 8.62765625 8.57515625 8.7578125 9.2578125 C9.93360282 15.4895012 10.97286962 21.74228398 12 28 C12.35827881 27.27820557 12.71655762 26.55641113 13.08569336 25.81274414 C14.70089456 22.56163067 16.3191546 19.3120494 17.9375 16.0625 C18.50146484 14.92619141 19.06542969 13.78988281 19.64648438 12.61914062 C20.18466797 11.53955078 20.72285156 10.45996094 21.27734375 9.34765625 C22.02359009 7.84730835 22.02359009 7.84730835 22.78491211 6.31665039 C24 4 24 4 25 3 C26.51928038 2.92820036 28.04167482 2.91607993 29.5625 2.9375 C30.38878906 2.94652344 31.21507813 2.95554687 32.06640625 2.96484375 C32.70449219 2.97644531 33.34257813 2.98804688 34 3 C34.08564209 3.65073486 34.17128418 4.30146973 34.25952148 4.97192383 C34.64914094 7.91919374 35.04326783 10.86584371 35.4375 13.8125 C35.57220703 14.83666016 35.70691406 15.86082031 35.84570312 16.91601562 C35.97783203 17.89892578 36.10996094 18.88183594 36.24609375 19.89453125 C36.36654053 20.80050049 36.4869873 21.70646973 36.61108398 22.63989258 C36.95962872 25.1418344 36.95962872 25.1418344 38 28 C42.62 18.76 47.24 9.52 52 0 C57 1 57 1 59 2 C58.06625244 6.20103724 56.19474314 9.78017507 54.21875 13.57421875 C53.84520386 14.29865677 53.47165771 15.02309479 53.08679199 15.76948547 C52.29861007 17.29599629 51.50840313 18.82146301 50.71630859 20.34594727 C49.50015465 22.68720228 48.29059388 25.03177197 47.08203125 27.37695312 C46.31548814 28.85957359 45.54857391 30.34200224 44.78125 31.82421875 C44.41769409 32.52834396 44.05413818 33.23246918 43.67956543 33.95793152 C41.11628428 38.88371572 41.11628428 38.88371572 40 40 C38.48071962 40.07179964 36.95832518 40.08392007 35.4375 40.0625 C34.61121094 40.05347656 33.78492188 40.04445312 32.93359375 40.03515625 C32.29550781 40.02355469 31.65742187 40.01195312 31 40 C30.91435791 39.31897217 30.82871582 38.63794434 30.74047852 37.9362793 C30.35095243 34.85294757 29.95678098 31.77022714 29.5625 28.6875 C29.42779297 27.61564453 29.29308594 26.54378906 29.15429688 25.43945312 C28.95610352 23.89741211 28.95610352 23.89741211 28.75390625 22.32421875 C28.63345947 21.37635498 28.5130127 20.42849121 28.38891602 19.4519043 C28.04827548 16.87198809 28.04827548 16.87198809 27 14 C22.71 22.58 18.42 31.16 14 40 C11.03 40 8.06 40 5 40 C0.4308534 13.24874212 0.4308534 13.24874212 0 0 Z " fill="#EEEEEE" transform="translate(86,26)"/>
<path d="M0 0 C2.96025155 2.09383646 4.73929134 3.65694655 6.5625 6.8125 C7.21586446 10.86335965 7.4713073 13.1971994 5.45703125 16.77734375 C2.27014116 20.81862796 -1.27344802 23.88297064 -6.4375 24.8125 C-11.45287324 25.04047151 -16.42168097 24.98679487 -21.4375 24.8125 C-19.83118772 29.76394232 -19.83118772 29.76394232 -16.3125 33.3125 C-12.21246785 34.02554907 -8.51978525 33.47139516 -4.4375 32.8125 C-3.261875 32.626875 -2.08625 32.44125 -0.875 32.25 C-0.070625 32.105625 0.73375 31.96125 1.5625 31.8125 C1.5625 33.7925 1.5625 35.7725 1.5625 37.8125 C-5.28194775 41.63265688 -13.05099495 42.23499253 -20.65625 40.2265625 C-25.0389941 38.13130326 -27.46426811 34.58654213 -29.5546875 30.37109375 C-31.6657805 24.2526605 -31.24047765 18.15146998 -29 12.125 C-23.26821226 0.68204247 -12.07574812 -4.17162208 0 0 Z " fill="#F2F2F1" transform="translate(74.4375,26.1875)"/>
<path d="M0 0 C13.53 0 27.06 0 41 0 C41 1.98 41 3.96 41 6 C35.39 6 29.78 6 24 6 C23.9175 7.588125 23.835 9.17625 23.75 10.8125 C23.22401104 17.27682803 21.92169445 23.44322883 20.51928711 29.75878906 C19.10718115 36.21155259 18.15002079 42.63206247 17.39453125 49.19140625 C17 52 17 52 16 54 C13.36 54 10.72 54 8 54 C8.14076315 52.0412957 8.2877676 50.08303907 8.4375 48.125 C8.51871094 47.03445312 8.59992187 45.94390625 8.68359375 44.8203125 C9 42 9 42 10 40 C10.25192379 38.56179991 10.461841 37.11609404 10.6484375 35.66796875 C10.76533936 34.79229248 10.88224121 33.91661621 11.00268555 33.0144043 C11.12554932 32.08152588 11.24841309 31.14864746 11.375 30.1875 C12.4953672 21.96890154 13.96395153 14.04723921 16 6 C10.72 6 5.44 6 0 6 C0 4.02 0 2.04 0 0 Z " fill="#F3F3F3" transform="translate(5,12)"/>
<path d="M0 0 C1.84087066 0.69939889 3.64168432 1.50289277 5.4296875 2.328125 C4.85384318 4.71376577 4.20741155 6.99495284 3.4296875 9.328125 C2.77742188 9.1115625 2.12515625 8.895 1.453125 8.671875 C-6.54857546 5.85035959 -6.54857546 5.85035959 -14.5703125 7.328125 C-15.09365004 9.65740953 -15.09365004 9.65740953 -14.5703125 12.328125 C-12.46966817 13.93092876 -10.62868057 15.11215381 -8.3203125 16.328125 C-3.85350802 18.74314456 -0.3843415 20.97421573 2.4296875 25.328125 C2.97959415 29.17747154 3.32019689 31.66754397 1.4765625 35.10546875 C-1.13355721 38.4837566 -3.56739146 40.0864257 -7.5703125 41.328125 C-10.91015625 41.62890625 -10.91015625 41.62890625 -14.5078125 41.640625 C-15.69246094 41.65738281 -16.87710938 41.67414063 -18.09765625 41.69140625 C-21.87120966 41.29664757 -24.30822426 40.21565392 -27.5703125 38.328125 C-27.5703125 34.328125 -27.5703125 34.328125 -25.5703125 31.328125 C-24.91804687 31.5446875 -24.26578125 31.76125 -23.59375 31.984375 C-16.72802646 34.21726625 -16.72802646 34.21726625 -9.5703125 34.328125 C-6.3734696 32.68602035 -6.3734696 32.68602035 -5.9921875 29.953125 C-6.33604516 27.04644805 -6.33604516 27.04644805 -9.2734375 25.265625 C-10.44540655 24.60124346 -11.62838323 23.95599353 -12.8203125 23.328125 C-17.28943767 20.91185073 -20.74615089 18.67665335 -23.5703125 14.328125 C-24.45198364 9.27855392 -24.45198364 9.27855392 -23.5703125 6.328125 C-17.3671637 -1.14787771 -9.25793171 -2.42000647 0 0 Z " fill="#F3F3F2" transform="translate(201.5703125,25.671875)"/>
<path d="M0 0 C1.98 0 3.96 0 6 0 C6.07329796 4.39787789 6.07396066 7.70415737 5 12 C8.3 12 11.6 12 15 12 C15 13.98 15 15.96 15 18 C11.04 18 7.08 18 3 18 C2.7834375 20.8153125 2.7834375 20.8153125 2.5625 23.6875 C2.26588806 27.54345521 1.76235565 31.21321701 1 35 C0.78837994 37.73137522 0.8644793 40.24441251 1 43 C1.66 43.66 2.32 44.32 3 45 C5.44963177 45.02253443 5.44963177 45.02253443 8.125 44.625 C9.03507812 44.51414063 9.94515625 44.40328125 10.8828125 44.2890625 C11.58148438 44.19367187 12.28015625 44.09828125 13 44 C13 45.98 13 47.96 13 50 C8.45019664 52.62690725 4.13781664 52.68282166 -1 52 C-4.67114368 49.85849952 -6.35369879 47.84616221 -8 44 C-8.74580498 35.19950118 -6.65993644 26.60597998 -5 18 C-6.98 18 -8.96 18 -11 18 C-10.67 16.02 -10.34 14.04 -10 12 C-7.69 12 -5.38 12 -3 12 C-2.86722656 11.38511719 -2.73445312 10.77023438 -2.59765625 10.13671875 C-2.33275391 8.92435547 -2.33275391 8.92435547 -2.0625 7.6875 C-1.88847656 6.88699219 -1.71445313 6.08648437 -1.53515625 5.26171875 C-1 3 -1 3 0 0 Z " fill="#F0F0F0" transform="translate(157,15)"/>
<path d="M0 0 C0.98387679 4.05849177 1.03924323 7.83531255 1 12 C-21.90396071 12.37293523 -21.90396071 12.37293523 -30.625 11 C-38.66993758 9.79454177 -46.69482672 9.80390709 -54.8125 9.8125 C-55.49105042 9.8117749 -56.16960083 9.8110498 -56.86871338 9.81030273 C-64.55056028 9.58747569 -64.55056028 9.58747569 -72 11 C-74.33299825 11.03954234 -76.66708189 11.04401732 -79 11 C-75.41095967 8.60730645 -71.89003589 7.86812345 -67.75 6.9375 C-67.01136719 6.76412109 -66.27273438 6.59074219 -65.51171875 6.41210938 C-58.32188668 4.75730676 -51.32133681 3.86531317 -43.93359375 3.7890625 C-42.37954722 3.7609684 -40.82551092 3.73230381 -39.27148438 3.703125 C-36.86515892 3.6621953 -34.45901893 3.6252379 -32.05249023 3.59863281 C-22.58003931 3.4852956 -13.84597616 2.9046443 -4.60961914 0.63427734 C-2 0 -2 0 0 0 Z " fill="#3D3D3D" transform="translate(516,78)"/>
<path d="M0 0 C9.36964398 0.89845901 9.36964398 0.89845901 13.18579102 1.51318359 C17.11440193 2.01460139 20.94799338 2.11888418 24.8984375 2.10546875 C69.043344 2.36222933 69.043344 2.36222933 82 11 C81.16984375 10.855625 80.3396875 10.71125 79.484375 10.5625 C62.23141328 7.96372752 44.16969519 7.66083229 26.94921875 10.5546875 C17.70283044 11.59730695 8.29140333 11.13833355 -1 11 C-0.67 7.37 -0.34 3.74 0 0 Z " fill="#3E3D3D" transform="translate(315,79)"/>
<path d="M0 0 C0.99 4.95 0.99 4.95 2 10 C-10.64570704 13.93421997 -22.89104218 14.35034964 -36.01635742 14.45629883 C-47.02830839 14.56185951 -57.23225488 15.61233251 -68 18 C-68.98379639 18.21092285 -69.96759277 18.4218457 -70.98120117 18.63916016 C-72.99103435 19.07669871 -74.99637195 19.53487206 -77 20 C-66.35224456 11.19512531 -50.62128958 9.17555527 -37.29321289 7.90942383 C-26.58135023 6.78439279 -15.7833166 4.29207958 -5.578125 0.84375 C-3 0 -3 0 0 0 Z " fill="#3D3D3C" transform="translate(513,64)"/>
<path d="M0 0 C0 0.33 0 0.66 0 1 C-0.97102661 1.00616333 -0.97102661 1.00616333 -1.96166992 1.01245117 C-16.48631595 1.17254118 -29.80057889 2.48267848 -43.79980469 6.38769531 C-46.83185914 7.23150274 -49.88301965 7.99200856 -52.9375 8.75 C-53.79214844 8.97171875 -54.64679688 9.1934375 -55.52734375 9.421875 C-60.8837538 10.6742426 -65.86972616 11.11443655 -71.375 11.0625 C-73.24285156 11.04896484 -73.24285156 11.04896484 -75.1484375 11.03515625 C-76.55996094 11.01775391 -76.55996094 11.01775391 -78 11 C-78 7.37 -78 3.74 -78 0 C-76.50339844 0.23976563 -76.50339844 0.23976563 -74.9765625 0.484375 C-64.45837178 1.97115685 -54.10974751 1.17524545 -43.6875 -0.5 C-29.03724843 -2.82332272 -14.57275652 -2.9783736 0 0 Z " fill="#3E3E3D" transform="translate(391,93)"/>
<path d="M0 0 C10.83376486 2.06499252 22.06999114 1.32104227 33.04541016 1.07421875 C34.6526665 4.28873144 34.10289201 7.51034411 34.04541016 11.07421875 C20.92548597 11.62771555 9.07208045 9.75184207 -3.45068359 5.83203125 C-16.53411709 1.87230255 -29.37192879 1.39193155 -42.95458984 1.07421875 C-42.95458984 0.74421875 -42.95458984 0.41421875 -42.95458984 0.07421875 C-28.30723228 -2.13372748 -14.5847183 -3.07864303 0 0 Z " fill="#3E3E3E" transform="translate(483.95458984375,92.92578125)"/>
<path d="M0 0 C5.23874858 1.08387902 10.27110192 2.39454849 15.375 4 C21.11264786 5.68097575 26.61492403 6.52181128 32.5625 7.0625 C47.54863428 8.45062406 60.92451236 12.86112908 75 18 C71.42882118 19.02444509 69.51013103 18.79769904 65.9375 17.6875 C53.63227132 13.89415883 41.65642266 13.6460378 28.90820312 13.54370117 C18.23523936 13.44193674 8.40017448 12.50770023 -2 10 C-1.34 6.7 -0.68 3.4 0 0 Z " fill="#3E3E3E" transform="translate(318,64)"/>
<path d="M0 0 C1.134375 0.020625 2.26875 0.04125 3.4375 0.0625 C2.69301688 14.0117627 2.69301688 14.0117627 0.9765625 19.9296875 C-0.02647498 23.8982271 -0.51116537 27.96444699 -1.09765625 32.01171875 C-1.50984752 34.71694044 -2.00113543 37.3848407 -2.5625 40.0625 C-5.2025 40.0625 -7.8425 40.0625 -10.5625 40.0625 C-10.42165204 38.27043453 -10.27466299 36.47885083 -10.125 34.6875 C-10.04378906 33.68976562 -9.96257812 32.69203125 -9.87890625 31.6640625 C-9.5625 29.0625 -9.5625 29.0625 -8.5625 27.0625 C-8.19552131 24.56245767 -7.86252694 22.07053774 -7.5625 19.5625 C-6.69763514 12.33277027 -6.69763514 12.33277027 -5.5625 10.0625 C-5.25458131 7.73172657 -5.05354726 5.40008104 -4.84375 3.05859375 C-4.34867964 -0.45503062 -3.74571873 0.06571436 0 0 Z " fill="#EFEEEE" transform="translate(220.5625,25.9375)"/>
<path d="M0 0 C0.99 0.66 1.98 1.32 3 2 C3.43132515 6.05445642 3.30019361 7.54970958 1 11 C-4.93631266 13.39978597 -10.66760208 13.20611783 -17 13 C-16.75239109 8.79064851 -16.41897739 6.52372173 -13.75 3.1875 C-8.97178316 -0.6133543 -5.98839572 -1.56219019 0 0 Z " fill="#29231D" transform="translate(70,32)"/>
<path d="M0 0 C3 0.25 3 0.25 5 2.25 C5.36487512 5.09602594 5.40199375 6.6364306 3.8125 9.0625 C1.3864306 10.65199375 -0.15397406 10.61487512 -3 10.25 C-5 8.25 -5 8.25 -5.25 5.25 C-4.90584825 1.120179 -4.129821 0.34415175 0 0 Z " fill="#F1F0F0" transform="translate(223,8.75)"/>
<path d="M0 0 C0.66 0.33 1.32 0.66 2 1 C-0.31 3.31 -2.62 5.62 -5 8 C-5.33 6.68 -5.66 5.36 -6 4 C-5.34 3.01 -4.68 2.02 -4 1 C-3.67 1.66 -3.34 2.32 -3 3 C-2.01 2.01 -1.02 1.02 0 0 Z " fill="#CFCDCC" transform="translate(248,27)"/>
<path d="M0 0 C0.66 0.33 1.32 0.66 2 1 C0.90536178 2.17561146 -0.20107186 3.3402489 -1.3125 4.5 C-1.92738281 5.1496875 -2.54226563 5.799375 -3.17578125 6.46875 C-5 8 -5 8 -8 8 C-6.81775332 5.63550664 -5.45903319 4.56573685 -3.4375 2.875 C-2.79683594 2.33617187 -2.15617187 1.79734375 -1.49609375 1.2421875 C-0.75552734 0.62730469 -0.75552734 0.62730469 0 0 Z " fill="#D7D6D5" transform="translate(275,26)"/>
</svg>
